<svg xmlns="http://www.w3.org/2000/svg" viewBox="0 0 188 56" role="img" aria-labelledby="axisLogoTitle">
  <title id="axisLogoTitle">AXIS</title>
  <rect width="188" height="56" rx="12" fill="#ffffff"/>
  <path d="M22 40.5 36 14.5l14 26h-8.4l-2.2-4.8H32.5l-2.2 4.8H22Zm13.8-11.6h3.9L37.7 24l-1.9 4.9Z" fill="#1268d8"/>
  <path d="M52 15h8.7l7 9.1 6.9-9.1h8.4L72.2 28l11.4 12.5h-8.9l-7.4-8.7-7.2 8.7h-8.6L62.9 28 52 15Z" fill="#273244"/>
  <path d="M90 15h7.8v25.5H90V15Z" fill="#1268d8"/>
  <path d="M106.4 32.1c2.9 1.9 6.1 2.9 9.4 2.9 2.5 0 3.7-.7 3.7-1.9 0-1.3-1-1.8-5.3-2.6-6.2-1.2-10.4-3.1-10.4-8 0-4.8 4.1-8.1 11.1-8.1 4.2 0 7.8.9 10.8 2.7l-3.2 5.7c-2.7-1.5-5.3-2.2-7.9-2.2-2.2 0-3.2.7-3.2 1.8 0 1.2 1.1 1.7 5.4 2.5 6.7 1.2 10.3 3.5 10.3 8.1 0 5.1-4.3 8.4-11.5 8.4-4.9 0-9.3-1.2-12.7-3.6l3.5-5.7Z" fill="#273244"/>
  <path d="M137.6 15h7.8v19h19.4v6.5h-27.2V15Z" fill="#1268d8"/>
</svg>
